<svg width="60" height="60" viewBox="0 0 60 60" fill="none" xmlns="http://www.w3.org/2000/svg">
<circle cx="30" cy="30" r="30" fill="#FE0000"/>
<path d="M33.5939 15C32.4575 15 31.3209 15.1421 30.3263 15.4262C29.3318 15.1421 28.1954 15 27.0588 15C18.819 15 12 21.677 12 29.9167C12 38.1565 18.819 44.8335 27.2009 44.8335C28.3373 44.8335 29.4739 44.6914 30.4684 44.4072C31.4629 44.6914 32.5994 44.8335 33.736 44.8335C41.9757 44.8335 48.7948 38.1565 48.7948 29.9167C48.7948 21.677 41.9757 15 33.5939 15ZM27.2011 41.9922C20.382 41.9922 14.9836 36.5937 14.9836 29.9167C14.9836 23.2398 20.382 17.8413 27.2011 17.8413C34.0201 17.8413 39.4186 23.2398 39.4186 29.9167C39.4186 36.5937 34.0201 41.9922 27.2011 41.9922ZM36.2931 41.708C39.8446 39.0088 42.1178 34.7469 42.1178 29.9167C42.1178 25.0866 39.8448 20.8247 36.2931 18.1255C41.6916 19.4039 45.8114 24.0922 45.8114 29.9167C45.8114 35.5993 41.6916 40.4295 36.2931 41.708Z" fill="white"/>
<path d="M28.1956 28.3541V24.2343C29.332 24.3764 30.3265 24.8026 31.3211 25.5128L32.7416 23.5239C31.321 22.5294 29.7582 21.9613 28.1956 21.8192V20.6826H26.775V21.8192C25.3545 21.9613 24.2179 22.3875 23.3654 23.0977C22.513 23.9501 22.0869 24.9445 22.0869 26.2232C22.0869 27.5016 22.5132 28.4962 23.2235 29.0645C23.9339 29.7748 25.2124 30.2011 26.9171 30.6271V34.889C25.6386 34.7469 24.3599 34.0365 23.0815 32.9001L21.2347 35.031C22.7973 36.4516 24.6443 37.3041 26.6331 37.4461V39.0088H28.0537V37.4461C29.6163 37.3041 30.7529 36.8778 31.6054 36.1676C32.4578 35.3152 33.0259 34.3209 33.0259 33.0422C33.0259 31.7635 32.5997 30.7692 31.8895 30.0588C31.0367 29.3484 29.7582 28.7801 28.1956 28.3541ZM26.6328 28.0699C25.7803 27.7858 25.2122 27.5016 24.9281 27.2175C24.6439 26.9333 24.5018 26.5071 24.5018 25.939C24.5018 25.5128 24.6439 25.0866 25.0701 24.6605C25.4964 24.3764 25.9226 24.0922 26.6328 24.0922V28.0699ZM29.7582 34.4627C29.332 34.7469 28.7637 35.031 28.0535 35.031V31.0533C28.906 31.3375 29.4741 31.6216 29.9003 31.9058C30.1845 32.1899 30.3265 32.6162 30.3265 33.1843C30.3265 33.7524 30.1844 34.1786 29.7582 34.4627Z" fill="white"/>
</svg>
