<svg width="14" height="16" viewBox="0 0 14 16" fill="none" xmlns="http://www.w3.org/2000/svg">
<path d="M12.7794 0.563809H6.12994L6.1103 0.515716C5.98262 0.205161 5.66395 0 5.30873 0H1.37288C0.626963 0 0 0.555111 0 1.2545V14.745C0 15.4434 0.626418 16 1.37288 16H11.61C11.771 16 11.921 15.9253 12.0116 15.802C12.1022 15.6782 12.1224 15.5201 12.0662 15.3804H12.7799C13.4702 15.3804 14 14.8581 14 14.2114V1.73696C13.9995 1.09027 13.4691 0.563809 12.7794 0.563809ZM12.6184 14.0287H11.5325L10.9241 12.521C11.2564 12.4642 11.5069 12.1991 11.5069 11.8712C11.5069 11.5013 11.1882 11.2117 10.7926 11.2117H10.3948L9.89718 9.97256H10.9137C11.3083 9.97256 11.6269 9.66559 11.6269 9.2962C11.6269 8.92681 11.3083 8.62086 10.9137 8.62086H9.36407L8.86643 7.38119H10.9137C11.3083 7.38119 11.6269 7.10236 11.6269 6.73348C11.6269 6.36357 11.3083 6.08474 10.9137 6.08474H8.33332L7.83568 4.8461H10.9137C11.3083 4.8461 11.6269 4.53912 11.6269 4.16973C11.6269 3.80085 11.3083 3.49439 10.9137 3.49439H7.30311L6.66251 1.91654H12.6178V14.0287H12.6184Z" fill="#FE6666"/>
</svg>
