<svg width="1118" height="311" viewBox="0 0 1118 311" fill="none" xmlns="http://www.w3.org/2000/svg">
<rect x="0.5" y="0.5" width="1117" height="310" rx="9.5" fill="white" stroke="#DFE0EB"/>
<path d="M46.448 40.152C45.1687 40.152 44.054 39.8733 43.104 39.316C42.1667 38.7587 41.4447 37.9607 40.938 36.922C40.4313 35.8707 40.178 34.6357 40.178 33.217C40.178 31.7983 40.4313 30.576 40.938 29.55C41.4447 28.5113 42.1667 27.7133 43.104 27.156C44.054 26.5987 45.1687 26.32 46.448 26.32C47.3853 26.32 48.2403 26.4657 49.013 26.757C49.7983 27.0357 50.476 27.46 51.046 28.03L50.457 29.227C49.811 28.6697 49.1713 28.2707 48.538 28.03C47.9173 27.7893 47.227 27.669 46.467 27.669C44.985 27.669 43.8323 28.1503 43.009 29.113C42.1983 30.0757 41.793 31.4437 41.793 33.217C41.793 35.003 42.1983 36.3837 43.009 37.359C43.8197 38.3217 44.9723 38.803 46.467 38.803C47.227 38.803 47.9173 38.6827 48.538 38.442C49.1713 38.2013 49.811 37.8023 50.457 37.245L51.046 38.442C50.476 39.012 49.7983 39.4427 49.013 39.734C48.2403 40.0127 47.3853 40.152 46.448 40.152ZM57.6367 40.133C56.7374 40.133 55.9457 39.9303 55.2617 39.525C54.5777 39.1197 54.0457 38.5433 53.6657 37.796C53.2984 37.0487 53.1147 36.1747 53.1147 35.174C53.1147 34.1733 53.2984 33.2993 53.6657 32.552C54.0457 31.8047 54.5777 31.2283 55.2617 30.823C55.9457 30.4177 56.7374 30.215 57.6367 30.215C58.5361 30.215 59.3277 30.4177 60.0117 30.823C60.6957 31.2283 61.2214 31.8047 61.5887 32.552C61.9687 33.2993 62.1587 34.1733 62.1587 35.174C62.1587 36.1747 61.9687 37.0487 61.5887 37.796C61.2214 38.5433 60.6957 39.1197 60.0117 39.525C59.3277 39.9303 58.5361 40.133 57.6367 40.133ZM57.6367 38.86C58.5867 38.86 59.3151 38.5497 59.8217 37.929C60.3284 37.2957 60.5817 36.3773 60.5817 35.174C60.5817 34.0087 60.3221 33.1093 59.8027 32.476C59.2834 31.83 58.5614 31.507 57.6367 31.507C56.6994 31.507 55.9711 31.83 55.4517 32.476C54.9324 33.1093 54.6727 34.0087 54.6727 35.174C54.6727 36.3773 54.9261 37.2957 55.4327 37.929C55.9521 38.5497 56.6867 38.86 57.6367 38.86ZM69.7268 30.215C72.0194 30.215 73.1658 31.4753 73.1658 33.996V40H71.6268V34.072C71.6268 33.1853 71.4494 32.5393 71.0948 32.134C70.7401 31.716 70.1828 31.507 69.4228 31.507C68.5361 31.507 67.8268 31.7793 67.2948 32.324C66.7628 32.8687 66.4968 33.6033 66.4968 34.528V40H64.9578V33.122C64.9578 32.134 64.9071 31.241 64.8058 30.443H66.2688L66.4208 32.153C66.7121 31.5323 67.1491 31.0573 67.7318 30.728C68.3144 30.386 68.9794 30.215 69.7268 30.215ZM78.524 31.659V36.884C78.524 37.5933 78.6697 38.0937 78.961 38.385C79.2524 38.6637 79.664 38.803 80.196 38.803C80.5507 38.803 80.8927 38.746 81.222 38.632V39.943C80.8294 40.0697 80.386 40.133 79.892 40.133C78.98 40.133 78.2644 39.8797 77.745 39.373C77.2384 38.8537 76.985 38.0937 76.985 37.093V31.659H75.123V30.443H76.985V27.992L78.524 27.441V30.443H81.26V31.659H78.524ZM87.9606 30.215C88.2773 30.215 88.5686 30.253 88.8346 30.329L88.7966 31.735C88.5053 31.6337 88.1696 31.583 87.7896 31.583C86.8649 31.583 86.1746 31.8743 85.7186 32.457C85.2753 33.027 85.0536 33.7237 85.0536 34.547V40H83.5146V33.122C83.5146 32.134 83.4639 31.241 83.3626 30.443H84.8256L84.9776 32.21C85.2183 31.564 85.6046 31.07 86.1366 30.728C86.6686 30.386 87.2766 30.215 87.9606 30.215ZM94.5649 40.133C93.6655 40.133 92.8739 39.9303 92.1899 39.525C91.5059 39.1197 90.9739 38.5433 90.5939 37.796C90.2265 37.0487 90.0429 36.1747 90.0429 35.174C90.0429 34.1733 90.2265 33.2993 90.5939 32.552C90.9739 31.8047 91.5059 31.2283 92.1899 30.823C92.8739 30.4177 93.6655 30.215 94.5649 30.215C95.4642 30.215 96.2559 30.4177 96.9399 30.823C97.6239 31.2283 98.1495 31.8047 98.5169 32.552C98.8969 33.2993 99.0869 34.1733 99.0869 35.174C99.0869 36.1747 98.8969 37.0487 98.5169 37.796C98.1495 38.5433 97.6239 39.1197 96.9399 39.525C96.2559 39.9303 95.4642 40.133 94.5649 40.133ZM94.5649 38.86C95.5149 38.86 96.2432 38.5497 96.7499 37.929C97.2565 37.2957 97.5099 36.3773 97.5099 35.174C97.5099 34.0087 97.2502 33.1093 96.7309 32.476C96.2115 31.83 95.4895 31.507 94.5649 31.507C93.6275 31.507 92.8992 31.83 92.3799 32.476C91.8605 33.1093 91.6009 34.0087 91.6009 35.174C91.6009 36.3773 91.8542 37.2957 92.3609 37.929C92.8802 38.5497 93.6149 38.86 94.5649 38.86ZM101.886 26.016H103.425V40H101.886V26.016ZM114.812 35.174H107.801C107.814 36.39 108.093 37.3083 108.637 37.929C109.195 38.5497 109.999 38.86 111.05 38.86C112.165 38.86 113.191 38.4863 114.128 37.739L114.641 38.86C114.223 39.2527 113.685 39.563 113.026 39.791C112.38 40.019 111.715 40.133 111.031 40.133C109.537 40.133 108.365 39.696 107.516 38.822C106.668 37.9353 106.243 36.7257 106.243 35.193C106.243 34.2177 106.433 33.3563 106.813 32.609C107.193 31.849 107.725 31.26 108.409 30.842C109.093 30.424 109.872 30.215 110.746 30.215C112.013 30.215 113.007 30.633 113.729 31.469C114.451 32.2923 114.812 33.4323 114.812 34.889V35.174ZM110.765 31.412C109.967 31.412 109.315 31.6527 108.808 32.134C108.314 32.6153 107.998 33.293 107.858 34.167H113.425C113.349 33.2677 113.083 32.5837 112.627 32.115C112.184 31.6463 111.563 31.412 110.765 31.412ZM126.132 40.133C124.524 40.133 123.251 39.7213 122.313 38.898L122.826 37.758C123.346 38.1633 123.871 38.4547 124.403 38.632C124.935 38.8093 125.531 38.898 126.189 38.898C126.911 38.898 127.456 38.7777 127.823 38.537C128.203 38.2837 128.393 37.9227 128.393 37.454C128.393 37.074 128.267 36.77 128.013 36.542C127.76 36.314 127.342 36.1367 126.759 36.01L125.144 35.63C124.346 35.4527 123.726 35.136 123.282 34.68C122.852 34.224 122.636 33.6793 122.636 33.046C122.636 32.21 122.972 31.5323 123.643 31.013C124.315 30.481 125.201 30.215 126.303 30.215C126.975 30.215 127.608 30.3227 128.203 30.538C128.799 30.7533 129.299 31.0637 129.704 31.469L129.191 32.59C128.292 31.8427 127.329 31.469 126.303 31.469C125.619 31.469 125.087 31.602 124.707 31.868C124.34 32.1213 124.156 32.4823 124.156 32.951C124.156 33.3437 124.27 33.654 124.498 33.882C124.739 34.11 125.119 34.2873 125.638 34.414L127.253 34.813C128.14 35.0157 128.799 35.3323 129.229 35.763C129.66 36.181 129.875 36.732 129.875 37.416C129.875 38.2393 129.54 38.898 128.868 39.392C128.197 39.886 127.285 40.133 126.132 40.133ZM140.727 30.443V40H139.226V38.347C138.922 38.9297 138.498 39.373 137.953 39.677C137.408 39.981 136.794 40.133 136.11 40.133C134.983 40.133 134.128 39.8163 133.545 39.183C132.962 38.5497 132.671 37.6123 132.671 36.371V30.443H134.21V36.333C134.21 37.1943 134.387 37.8277 134.742 38.233C135.097 38.6383 135.635 38.841 136.357 38.841C137.206 38.841 137.89 38.5687 138.409 38.024C138.928 37.4667 139.188 36.7383 139.188 35.839V30.443H140.727ZM152.511 30.443V40H150.991V38.271C150.712 38.8663 150.288 39.3287 149.718 39.658C149.161 39.9747 148.508 40.133 147.761 40.133C146.912 40.133 146.165 39.9303 145.519 39.525C144.886 39.1197 144.392 38.5497 144.037 37.815C143.695 37.0677 143.524 36.2 143.524 35.212C143.524 34.224 143.701 33.3563 144.056 32.609C144.411 31.849 144.905 31.26 145.538 30.842C146.184 30.424 146.925 30.215 147.761 30.215C148.508 30.215 149.161 30.3797 149.718 30.709C150.275 31.0383 150.7 31.5007 150.991 32.096V30.443H152.511ZM148.065 38.86C149.002 38.86 149.724 38.5433 150.231 37.91C150.738 37.264 150.991 36.352 150.991 35.174C150.991 33.996 150.738 33.0903 150.231 32.457C149.724 31.8237 149.002 31.507 148.065 31.507C147.128 31.507 146.393 31.8363 145.861 32.495C145.342 33.141 145.082 34.0467 145.082 35.212C145.082 36.3773 145.342 37.2767 145.861 37.91C146.38 38.5433 147.115 38.86 148.065 38.86ZM159.116 40.133C157.508 40.133 156.235 39.7213 155.297 38.898L155.81 37.758C156.33 38.1633 156.855 38.4547 157.387 38.632C157.919 38.8093 158.515 38.898 159.173 38.898C159.895 38.898 160.44 38.7777 160.807 38.537C161.187 38.2837 161.377 37.9227 161.377 37.454C161.377 37.074 161.251 36.77 160.997 36.542C160.744 36.314 160.326 36.1367 159.743 36.01L158.128 35.63C157.33 35.4527 156.71 35.136 156.266 34.68C155.836 34.224 155.62 33.6793 155.62 33.046C155.62 32.21 155.956 31.5323 156.627 31.013C157.299 30.481 158.185 30.215 159.287 30.215C159.959 30.215 160.592 30.3227 161.187 30.538C161.783 30.7533 162.283 31.0637 162.688 31.469L162.175 32.59C161.276 31.8427 160.313 31.469 159.287 31.469C158.603 31.469 158.071 31.602 157.691 31.868C157.324 32.1213 157.14 32.4823 157.14 32.951C157.14 33.3437 157.254 33.654 157.482 33.882C157.723 34.11 158.103 34.2873 158.622 34.414L160.237 34.813C161.124 35.0157 161.783 35.3323 162.213 35.763C162.644 36.181 162.859 36.732 162.859 37.416C162.859 38.2393 162.524 38.898 161.852 39.392C161.181 39.886 160.269 40.133 159.116 40.133ZM173.118 30.443H178.989V40H177.45V31.659H173.118V40H171.579V31.659H169.717V30.443H171.579V29.17C171.579 28.3973 171.693 27.7767 171.921 27.308C172.162 26.8393 172.548 26.4973 173.08 26.282C173.612 26.0667 174.334 25.959 175.246 25.959H175.854V27.156H175.379C174.721 27.156 174.233 27.213 173.916 27.327C173.612 27.441 173.403 27.6627 173.289 27.992C173.175 28.3087 173.118 28.8027 173.118 29.474V30.443ZM179.179 26.301V28.087H177.26V26.301H179.179ZM187.127 30.215C189.42 30.215 190.566 31.4753 190.566 33.996V40H189.027V34.072C189.027 33.1853 188.85 32.5393 188.495 32.134C188.14 31.716 187.583 31.507 186.823 31.507C185.936 31.507 185.227 31.7793 184.695 32.324C184.163 32.8687 183.897 33.6033 183.897 34.528V40H182.358V33.122C182.358 32.134 182.307 31.241 182.206 30.443H183.669L183.821 32.153C184.112 31.5323 184.549 31.0573 185.132 30.728C185.715 30.386 186.38 30.215 187.127 30.215ZM202.289 30.443V40H200.769V38.271C200.491 38.8663 200.066 39.3287 199.496 39.658C198.939 39.9747 198.287 40.133 197.539 40.133C196.691 40.133 195.943 39.9303 195.297 39.525C194.664 39.1197 194.17 38.5497 193.815 37.815C193.473 37.0677 193.302 36.2 193.302 35.212C193.302 34.224 193.48 33.3563 193.834 32.609C194.189 31.849 194.683 31.26 195.316 30.842C195.962 30.424 196.703 30.215 197.539 30.215C198.287 30.215 198.939 30.3797 199.496 30.709C200.054 31.0383 200.478 31.5007 200.769 32.096V30.443H202.289ZM197.843 38.86C198.781 38.86 199.503 38.5433 200.009 37.91C200.516 37.264 200.769 36.352 200.769 35.174C200.769 33.996 200.516 33.0903 200.009 32.457C199.503 31.8237 198.781 31.507 197.843 31.507C196.906 31.507 196.171 31.8363 195.639 32.495C195.12 33.141 194.86 34.0467 194.86 35.212C194.86 36.3773 195.12 37.2767 195.639 37.91C196.159 38.5433 196.893 38.86 197.843 38.86ZM210.434 30.215C212.726 30.215 213.873 31.4753 213.873 33.996V40H212.334V34.072C212.334 33.1853 212.156 32.5393 211.802 32.134C211.447 31.716 210.89 31.507 210.13 31.507C209.243 31.507 208.534 31.7793 208.002 32.324C207.47 32.8687 207.204 33.6033 207.204 34.528V40H205.665V33.122C205.665 32.134 205.614 31.241 205.513 30.443H206.976L207.128 32.153C207.419 31.5323 207.856 31.0573 208.439 30.728C209.021 30.386 209.686 30.215 210.434 30.215ZM224.627 38.898C224.247 39.2527 223.772 39.544 223.202 39.772C222.645 39.9873 222.062 40.1077 221.454 40.133L221.378 40.817C221.581 40.7917 221.733 40.779 221.834 40.779C222.239 40.779 222.581 40.893 222.86 41.121C223.151 41.349 223.297 41.6783 223.297 42.109C223.297 42.5777 223.101 42.9577 222.708 43.249C222.315 43.553 221.771 43.705 221.074 43.705C220.808 43.705 220.517 43.6733 220.2 43.61C219.883 43.5467 219.611 43.458 219.383 43.344L219.63 42.508C220.086 42.6853 220.567 42.774 221.074 42.774C221.416 42.774 221.676 42.717 221.853 42.603C222.043 42.489 222.138 42.3243 222.138 42.109C222.138 41.9443 222.081 41.8177 221.967 41.729C221.853 41.6403 221.688 41.596 221.473 41.596C221.182 41.596 220.89 41.653 220.599 41.767L220.219 41.463L220.371 40.076C219.206 39.9113 218.287 39.3983 217.616 38.537C216.945 37.663 216.609 36.5547 216.609 35.212C216.609 34.224 216.799 33.3563 217.179 32.609C217.559 31.849 218.097 31.26 218.794 30.842C219.503 30.424 220.327 30.215 221.264 30.215C221.91 30.215 222.531 30.329 223.126 30.557C223.734 30.7723 224.234 31.0763 224.627 31.469L224.114 32.609C223.633 32.229 223.164 31.9503 222.708 31.773C222.265 31.5957 221.809 31.507 221.34 31.507C220.365 31.507 219.598 31.8363 219.041 32.495C218.484 33.141 218.205 34.0467 218.205 35.212C218.205 36.3647 218.477 37.264 219.022 37.91C219.579 38.5433 220.352 38.86 221.34 38.86C221.809 38.86 222.265 38.7713 222.708 38.594C223.164 38.4167 223.633 38.138 224.114 37.758L224.627 38.898ZM235.403 30.443V40H233.883V38.271C233.605 38.8663 233.18 39.3287 232.61 39.658C232.053 39.9747 231.401 40.133 230.653 40.133C229.805 40.133 229.057 39.9303 228.411 39.525C227.778 39.1197 227.284 38.5497 226.929 37.815C226.587 37.0677 226.416 36.2 226.416 35.212C226.416 34.224 226.594 33.3563 226.948 32.609C227.303 31.849 227.797 31.26 228.43 30.842C229.076 30.424 229.817 30.215 230.653 30.215C231.401 30.215 232.053 30.3797 232.61 30.709C233.168 31.0383 233.592 31.5007 233.883 32.096V30.443H235.403ZM230.957 38.86C231.895 38.86 232.617 38.5433 233.123 37.91C233.63 37.264 233.883 36.352 233.883 35.174C233.883 33.996 233.63 33.0903 233.123 32.457C232.617 31.8237 231.895 31.507 230.957 31.507C230.02 31.507 229.285 31.8363 228.753 32.495C228.234 33.141 227.974 34.0467 227.974 35.212C227.974 36.3773 228.234 37.2767 228.753 37.91C229.273 38.5433 230.007 38.86 230.957 38.86ZM242.009 40.133C240.4 40.133 239.127 39.7213 238.19 38.898L238.703 37.758C239.222 38.1633 239.748 38.4547 240.28 38.632C240.812 38.8093 241.407 38.898 242.066 38.898C242.788 38.898 243.333 38.7777 243.7 38.537C244.08 38.2837 244.27 37.9227 244.27 37.454C244.27 37.074 244.143 36.77 243.89 36.542C243.637 36.314 243.219 36.1367 242.636 36.01L241.021 35.63C240.223 35.4527 239.602 35.136 239.159 34.68C238.728 34.224 238.513 33.6793 238.513 33.046C238.513 32.21 238.849 31.5323 239.52 31.013C240.191 30.481 241.078 30.215 242.18 30.215C242.851 30.215 243.485 30.3227 244.08 30.538C244.675 30.7533 245.176 31.0637 245.581 31.469L245.068 32.59C244.169 31.8427 243.206 31.469 242.18 31.469C241.496 31.469 240.964 31.602 240.584 31.868C240.217 32.1213 240.033 32.4823 240.033 32.951C240.033 33.3437 240.147 33.654 240.375 33.882C240.616 34.11 240.996 34.2873 241.515 34.414L243.13 34.813C244.017 35.0157 244.675 35.3323 245.106 35.763C245.537 36.181 245.752 36.732 245.752 37.416C245.752 38.2393 245.416 38.898 244.745 39.392C244.074 39.886 243.162 40.133 242.009 40.133Z" fill="#40424C"/>
<path d="M482 241.5H636C646.77 241.5 655.5 250.23 655.5 261C655.5 271.77 646.77 280.5 636 280.5H482C471.23 280.5 462.5 271.77 462.5 261C462.5 250.23 471.23 241.5 482 241.5Z" stroke="#FE0000"/>
<path d="M524.799 267.128C523.721 267.128 522.783 266.893 521.983 266.424C521.193 265.955 520.585 265.283 520.159 264.408C519.732 263.523 519.519 262.483 519.519 261.288C519.519 260.093 519.732 259.064 520.159 258.2C520.585 257.325 521.193 256.653 521.983 256.184C522.783 255.715 523.721 255.48 524.799 255.48C525.588 255.48 526.308 255.603 526.959 255.848C527.62 256.083 528.191 256.44 528.671 256.92L528.175 257.928C527.631 257.459 527.092 257.123 526.559 256.92C526.036 256.717 525.455 256.616 524.815 256.616C523.567 256.616 522.596 257.021 521.903 257.832C521.22 258.643 520.879 259.795 520.879 261.288C520.879 262.792 521.22 263.955 521.903 264.776C522.585 265.587 523.556 265.992 524.815 265.992C525.455 265.992 526.036 265.891 526.559 265.688C527.092 265.485 527.631 265.149 528.175 264.68L528.671 265.688C528.191 266.168 527.62 266.531 526.959 266.776C526.308 267.011 525.588 267.128 524.799 267.128ZM535.868 267.128C534.812 267.128 533.895 266.893 533.116 266.424C532.338 265.955 531.735 265.283 531.308 264.408C530.892 263.523 530.684 262.488 530.684 261.304C530.684 260.109 530.892 259.075 531.308 258.2C531.724 257.325 532.322 256.653 533.1 256.184C533.879 255.715 534.802 255.48 535.868 255.48C536.935 255.48 537.858 255.715 538.636 256.184C539.415 256.653 540.012 257.325 540.428 258.2C540.844 259.075 541.052 260.104 541.052 261.288C541.052 262.483 540.839 263.517 540.412 264.392C539.996 265.267 539.399 265.944 538.62 266.424C537.842 266.893 536.924 267.128 535.868 267.128ZM535.868 266.008C537.074 266.008 538.012 265.597 538.684 264.776C539.356 263.955 539.692 262.792 539.692 261.288C539.692 259.784 539.356 258.627 538.684 257.816C538.023 257.005 537.084 256.6 535.868 256.6C534.652 256.6 533.708 257.011 533.036 257.832C532.364 258.643 532.028 259.795 532.028 261.288C532.028 262.792 532.364 263.955 533.036 264.776C533.708 265.597 534.652 266.008 535.868 266.008ZM554.628 255.608V267H553.412V258.536L549.716 267H548.788L545.06 258.6L545.076 267H543.86V255.608H544.948L549.268 265.432L553.54 255.608H554.628ZM557.838 255.608H565.038V256.696H559.134V260.664H564.718V261.768H559.134V265.912H565.038V267H557.838V255.608ZM576.317 265.688C575.869 266.136 575.336 266.483 574.717 266.728C574.099 266.973 573.421 267.107 572.685 267.128L572.621 267.688C572.792 267.667 572.92 267.656 573.005 267.656C573.347 267.656 573.635 267.752 573.869 267.944C574.115 268.136 574.237 268.413 574.237 268.776C574.237 269.171 574.072 269.491 573.741 269.736C573.411 269.992 572.952 270.12 572.365 270.12C572.141 270.12 571.896 270.093 571.629 270.04C571.363 269.987 571.133 269.912 570.941 269.816L571.149 269.112C571.533 269.261 571.939 269.336 572.365 269.336C572.653 269.336 572.872 269.288 573.021 269.192C573.181 269.096 573.261 268.957 573.261 268.776C573.261 268.637 573.213 268.531 573.117 268.456C573.021 268.381 572.883 268.344 572.701 268.344C572.456 268.344 572.211 268.392 571.965 268.488L571.645 268.232L571.773 267.096C570.824 267 570.003 266.707 569.309 266.216C568.616 265.715 568.083 265.048 567.709 264.216C567.347 263.373 567.165 262.397 567.165 261.288C567.165 260.093 567.379 259.064 567.805 258.2C568.232 257.325 568.84 256.653 569.629 256.184C570.429 255.715 571.368 255.48 572.445 255.48C573.235 255.48 573.955 255.603 574.605 255.848C575.267 256.083 575.837 256.44 576.317 256.92L575.821 257.928C575.277 257.459 574.739 257.123 574.205 256.92C573.683 256.717 573.101 256.616 572.461 256.616C571.213 256.616 570.243 257.021 569.549 257.832C568.867 258.643 568.525 259.795 568.525 261.288C568.525 262.792 568.867 263.955 569.549 264.776C570.232 265.587 571.203 265.992 572.461 265.992C573.101 265.992 573.683 265.891 574.205 265.688C574.739 265.485 575.277 265.149 575.821 264.68L576.317 265.688ZM586.094 264.072H580.142L578.878 267H577.518L582.526 255.608H583.678L588.686 267H587.342L586.094 264.072ZM585.63 262.984L583.118 257.128L580.606 262.984H585.63ZM599.732 267H598.34L596.932 263.208C596.761 262.739 596.521 262.424 596.212 262.264C595.913 262.104 595.486 262.024 594.932 262.024H592.084V267H590.788V255.608H595.316C596.542 255.608 597.481 255.88 598.132 256.424C598.793 256.968 599.124 257.752 599.124 258.776C599.124 259.523 598.926 260.152 598.532 260.664C598.148 261.165 597.588 261.523 596.852 261.736C597.182 261.789 597.465 261.933 597.7 262.168C597.934 262.392 598.132 262.717 598.292 263.144L599.732 267ZM595.204 260.936C596.953 260.936 597.828 260.221 597.828 258.792C597.828 258.088 597.614 257.565 597.188 257.224C596.761 256.872 596.1 256.696 595.204 256.696H592.084V260.936H595.204Z" fill="#FE0000"/>
<path d="M927 120H75" stroke="#FE6666"/>
<path d="M71.6679 174.608H75.8599C77.7266 174.608 79.1719 175.104 80.1959 176.096C81.2306 177.088 81.7479 178.485 81.7479 180.288C81.7479 182.101 81.2306 183.509 80.1959 184.512C79.1719 185.504 77.7266 186 75.8599 186H71.6679V174.608ZM75.7319 184.32C78.3559 184.32 79.6679 182.976 79.6679 180.288C79.6679 177.621 78.3559 176.288 75.7319 176.288H73.7319V184.32H75.7319ZM91.1834 182.064H85.6154C85.6581 182.928 85.8714 183.568 86.2554 183.984C86.6501 184.389 87.2314 184.592 87.9994 184.592C88.8848 184.592 89.7061 184.304 90.4634 183.728L91.0394 185.104C90.6554 185.413 90.1808 185.664 89.6154 185.856C89.0608 186.037 88.4954 186.128 87.9194 186.128C86.5968 186.128 85.5568 185.755 84.7994 185.008C84.0421 184.261 83.6634 183.237 83.6634 181.936C83.6634 181.115 83.8288 180.384 84.1594 179.744C84.4901 179.104 84.9541 178.608 85.5514 178.256C86.1488 177.893 86.8261 177.712 87.5834 177.712C88.6928 177.712 89.5674 178.075 90.2074 178.8C90.8581 179.515 91.1834 180.501 91.1834 181.76V182.064ZM87.6314 179.152C87.0981 179.152 86.6608 179.312 86.3194 179.632C85.9888 179.941 85.7754 180.395 85.6794 180.992H89.4394C89.3754 180.384 89.1888 179.925 88.8794 179.616C88.5808 179.307 88.1648 179.152 87.6314 179.152ZM95.7742 177.92H101.086V186H99.0862V179.424H95.7742V186H93.7742V179.424H92.2222V177.92H93.7742V177.104C93.7742 176.379 93.8862 175.808 94.1102 175.392C94.3342 174.965 94.6969 174.656 95.1982 174.464C95.7102 174.272 96.4035 174.176 97.2782 174.176H97.8702V175.648H97.4862C96.9849 175.648 96.6169 175.691 96.3822 175.776C96.1475 175.851 95.9875 176.005 95.9022 176.24C95.8169 176.464 95.7742 176.827 95.7742 177.328V177.92ZM101.214 174.176V176.192H98.9582V174.176H101.214ZM108.27 177.712C110.2 177.712 111.166 178.821 111.166 181.04V186H109.166V181.136C109.166 180.496 109.043 180.032 108.798 179.744C108.552 179.445 108.174 179.296 107.662 179.296C107.054 179.296 106.563 179.493 106.19 179.888C105.816 180.272 105.63 180.784 105.63 181.424V186H103.646V180.208C103.646 179.355 103.603 178.592 103.518 177.92H105.39L105.534 179.248C105.811 178.757 106.184 178.379 106.654 178.112C107.134 177.845 107.672 177.712 108.27 177.712ZM121.414 177.92V186H119.446V184.704C119.201 185.152 118.849 185.504 118.39 185.76C117.932 186.005 117.409 186.128 116.822 186.128C116.118 186.128 115.494 185.957 114.95 185.616C114.406 185.275 113.985 184.789 113.686 184.16C113.388 183.531 113.238 182.8 113.238 181.968C113.238 181.136 113.388 180.4 113.686 179.76C113.996 179.109 114.422 178.608 114.966 178.256C115.51 177.893 116.129 177.712 116.822 177.712C117.409 177.712 117.932 177.84 118.39 178.096C118.849 178.341 119.201 178.688 119.446 179.136V177.92H121.414ZM117.366 184.56C118.028 184.56 118.54 184.331 118.902 183.872C119.265 183.413 119.446 182.768 119.446 181.936C119.446 181.083 119.265 180.427 118.902 179.968C118.54 179.509 118.022 179.28 117.35 179.28C116.689 179.28 116.172 179.52 115.798 180C115.436 180.469 115.254 181.125 115.254 181.968C115.254 182.8 115.436 183.44 115.798 183.888C116.172 184.336 116.694 184.56 117.366 184.56ZM132.447 186.128C131.626 186.128 130.901 185.957 130.271 185.616C129.653 185.275 129.173 184.789 128.831 184.16C128.501 183.52 128.335 182.773 128.335 181.92C128.335 181.067 128.501 180.325 128.831 179.696C129.173 179.056 129.653 178.565 130.271 178.224C130.901 177.883 131.626 177.712 132.447 177.712C133.258 177.712 133.973 177.883 134.591 178.224C135.21 178.565 135.685 179.056 136.015 179.696C136.357 180.325 136.527 181.067 136.527 181.92C136.527 182.773 136.357 183.52 136.015 184.16C135.685 184.789 135.21 185.275 134.591 185.616C133.973 185.957 133.258 186.128 132.447 186.128ZM132.431 184.56C133.114 184.56 133.631 184.341 133.983 183.904C134.346 183.456 134.527 182.795 134.527 181.92C134.527 181.056 134.346 180.4 133.983 179.952C133.621 179.493 133.109 179.264 132.447 179.264C131.775 179.264 131.258 179.493 130.895 179.952C130.533 180.4 130.351 181.056 130.351 181.92C130.351 182.795 130.527 183.456 130.879 183.904C131.242 184.341 131.759 184.56 132.431 184.56ZM77.1176 206.128C76.2963 206.128 75.571 205.957 74.9416 205.616C74.323 205.275 73.843 204.789 73.5016 204.16C73.171 203.52 73.0056 202.773 73.0056 201.92C73.0056 201.067 73.171 200.325 73.5016 199.696C73.843 199.056 74.323 198.565 74.9416 198.224C75.571 197.883 76.2963 197.712 77.1176 197.712C77.9283 197.712 78.643 197.883 79.2616 198.224C79.8803 198.565 80.355 199.056 80.6856 199.696C81.027 200.325 81.1976 201.067 81.1976 201.92C81.1976 202.773 81.027 203.52 80.6856 204.16C80.355 204.789 79.8803 205.275 79.2616 205.616C78.643 205.957 77.9283 206.128 77.1176 206.128ZM77.1016 204.56C77.7843 204.56 78.3016 204.341 78.6536 203.904C79.0163 203.456 79.1976 202.795 79.1976 201.92C79.1976 201.056 79.0163 200.4 78.6536 199.952C78.291 199.493 77.779 199.264 77.1176 199.264C76.4456 199.264 75.9283 199.493 75.5656 199.952C75.203 200.4 75.0216 201.056 75.0216 201.92C75.0216 202.795 75.1976 203.456 75.5496 203.904C75.9123 204.341 76.4296 204.56 77.1016 204.56ZM87.9304 197.712C88.6344 197.712 89.253 197.888 89.7864 198.24C90.3304 198.581 90.7517 199.067 91.0504 199.696C91.349 200.325 91.4984 201.056 91.4984 201.888C91.4984 202.72 91.3437 203.461 91.0344 204.112C90.7357 204.752 90.3144 205.248 89.7704 205.6C89.237 205.952 88.6237 206.128 87.9304 206.128C87.333 206.128 86.7997 206 86.3304 205.744C85.8717 205.488 85.525 205.131 85.2904 204.672V206H83.3224V194.224H85.3064V199.136C85.5517 198.688 85.9037 198.341 86.3624 198.096C86.821 197.84 87.3437 197.712 87.9304 197.712ZM87.4024 204.56C88.0637 204.56 88.5757 204.325 88.9384 203.856C89.301 203.387 89.4824 202.731 89.4824 201.888C89.4824 201.056 89.301 200.416 88.9384 199.968C88.5757 199.509 88.0584 199.28 87.3864 199.28C86.7144 199.28 86.197 199.509 85.8344 199.968C85.4717 200.427 85.2904 201.077 85.2904 201.92C85.2904 202.773 85.4717 203.429 85.8344 203.888C86.197 204.336 86.7197 204.56 87.4024 204.56ZM91.5803 207.776C91.8683 207.861 92.1296 207.904 92.3643 207.904C92.7483 207.904 93.0576 207.792 93.2923 207.568C93.5269 207.344 93.6443 206.981 93.6443 206.48V197.92H95.6283V206.576C95.6283 207.536 95.3829 208.272 94.8923 208.784C94.4123 209.296 93.7243 209.552 92.8283 209.552C92.3483 209.552 91.9323 209.493 91.5803 209.376V207.776ZM95.7403 194.256V196.224H93.5163V194.256H95.7403ZM105.288 202.064H99.7201C99.7628 202.928 99.9761 203.568 100.36 203.984C100.755 204.389 101.336 204.592 102.104 204.592C102.989 204.592 103.811 204.304 104.568 203.728L105.144 205.104C104.76 205.413 104.285 205.664 103.72 205.856C103.165 206.037 102.6 206.128 102.024 206.128C100.701 206.128 99.6615 205.755 98.9041 205.008C98.1468 204.261 97.7681 203.237 97.7681 201.936C97.7681 201.115 97.9335 200.384 98.2641 199.744C98.5948 199.104 99.0588 198.608 99.6561 198.256C100.253 197.893 100.931 197.712 101.688 197.712C102.797 197.712 103.672 198.075 104.312 198.8C104.963 199.515 105.288 200.501 105.288 201.76V202.064ZM101.736 199.152C101.203 199.152 100.765 199.312 100.424 199.632C100.093 199.941 99.8801 200.395 99.7841 200.992H103.544C103.48 200.384 103.293 199.925 102.984 199.616C102.685 199.307 102.269 199.152 101.736 199.152ZM109.816 199.424V203.04C109.816 203.989 110.259 204.464 111.144 204.464C111.39 204.464 111.656 204.421 111.944 204.336V205.92C111.592 206.048 111.166 206.112 110.664 206.112C109.747 206.112 109.043 205.856 108.552 205.344C108.062 204.832 107.816 204.096 107.816 203.136V199.424H106.264V197.92H107.816V195.952L109.816 195.28V197.92H111.96V199.424H109.816ZM113.735 197.92H115.719V206H113.735V197.92ZM115.831 194.256V196.224H113.607V194.256H115.831ZM125.955 197.936L122.419 206H120.675L117.187 197.936H119.283L121.603 203.728L123.971 197.936H125.955ZM130.918 206.128C130.096 206.128 129.371 205.957 128.742 205.616C128.123 205.275 127.643 204.789 127.302 204.16C126.971 203.52 126.806 202.773 126.806 201.92C126.806 201.067 126.971 200.325 127.302 199.696C127.643 199.056 128.123 198.565 128.742 198.224C129.371 197.883 130.096 197.712 130.918 197.712C131.728 197.712 132.443 197.883 133.062 198.224C133.68 198.565 134.155 199.056 134.486 199.696C134.827 200.325 134.998 201.067 134.998 201.92C134.998 202.773 134.827 203.52 134.486 204.16C134.155 204.789 133.68 205.275 133.062 205.616C132.443 205.957 131.728 206.128 130.918 206.128ZM130.902 204.56C131.584 204.56 132.102 204.341 132.454 203.904C132.816 203.456 132.998 202.795 132.998 201.92C132.998 201.056 132.816 200.4 132.454 199.952C132.091 199.493 131.579 199.264 130.918 199.264C130.246 199.264 129.728 199.493 129.366 199.952C129.003 200.4 128.822 201.056 128.822 201.92C128.822 202.795 128.998 203.456 129.35 203.904C129.712 204.341 130.23 204.56 130.902 204.56Z" fill="#40424C"/>
<path d="M270.46 186.144C269.361 186.144 268.401 185.909 267.58 185.44C266.769 184.96 266.14 184.283 265.692 183.408C265.255 182.523 265.036 181.483 265.036 180.288C265.036 179.104 265.255 178.075 265.692 177.2C266.129 176.315 266.753 175.637 267.564 175.168C268.385 174.699 269.351 174.464 270.46 174.464C271.569 174.464 272.529 174.699 273.34 175.168C274.161 175.637 274.785 176.315 275.212 177.2C275.649 178.075 275.868 179.104 275.868 180.288C275.868 181.483 275.649 182.523 275.212 183.408C274.775 184.283 274.151 184.96 273.34 185.44C272.529 185.909 271.569 186.144 270.46 186.144ZM270.46 184.496C271.516 184.496 272.337 184.133 272.924 183.408C273.511 182.683 273.804 181.643 273.804 180.288C273.804 178.944 273.511 177.915 272.924 177.2C272.337 176.475 271.516 176.112 270.46 176.112C269.404 176.112 268.583 176.469 267.996 177.184C267.409 177.899 267.116 178.933 267.116 180.288C267.116 181.643 267.409 182.683 267.996 183.408C268.583 184.133 269.404 184.496 270.46 184.496ZM282.59 177.728C282.899 177.728 283.166 177.771 283.39 177.856L283.374 179.68C283.033 179.541 282.681 179.472 282.318 179.472C281.635 179.472 281.113 179.669 280.75 180.064C280.398 180.459 280.222 180.981 280.222 181.632V186H278.238V180.208C278.238 179.355 278.195 178.592 278.11 177.92H279.982L280.142 179.344C280.345 178.821 280.665 178.421 281.102 178.144C281.539 177.867 282.035 177.728 282.59 177.728ZM292.555 177.92V185.744C292.555 187.003 292.209 187.957 291.515 188.608C290.822 189.259 289.803 189.584 288.459 189.584C287.211 189.584 286.113 189.323 285.163 188.8L285.483 187.28C286.465 187.792 287.441 188.048 288.411 188.048C289.851 188.048 290.571 187.333 290.571 185.904V184.304C290.326 184.741 289.969 185.099 289.499 185.376C289.03 185.643 288.502 185.776 287.915 185.776C287.211 185.776 286.582 185.611 286.027 185.28C285.483 184.939 285.057 184.464 284.747 183.856C284.449 183.237 284.299 182.533 284.299 181.744C284.299 180.955 284.449 180.256 284.747 179.648C285.057 179.029 285.483 178.555 286.027 178.224C286.582 177.883 287.211 177.712 287.915 177.712C288.513 177.712 289.041 177.84 289.499 178.096C289.969 178.341 290.326 178.688 290.571 179.136V177.92H292.555ZM288.443 184.208C289.105 184.208 289.622 183.989 289.995 183.552C290.379 183.115 290.571 182.512 290.571 181.744C290.571 180.976 290.385 180.373 290.011 179.936C289.638 179.499 289.115 179.28 288.443 179.28C287.782 179.28 287.259 179.499 286.875 179.936C286.502 180.373 286.315 180.976 286.315 181.744C286.315 182.512 286.502 183.115 286.875 183.552C287.259 183.989 287.782 184.208 288.443 184.208ZM302.844 177.92V186H300.876V184.704C300.631 185.152 300.279 185.504 299.82 185.76C299.361 186.005 298.839 186.128 298.252 186.128C297.548 186.128 296.924 185.957 296.38 185.616C295.836 185.275 295.415 184.789 295.116 184.16C294.817 183.531 294.668 182.8 294.668 181.968C294.668 181.136 294.817 180.4 295.116 179.76C295.425 179.109 295.852 178.608 296.396 178.256C296.94 177.893 297.559 177.712 298.252 177.712C298.839 177.712 299.361 177.84 299.82 178.096C300.279 178.341 300.631 178.688 300.876 179.136V177.92H302.844ZM298.796 184.56C299.457 184.56 299.969 184.331 300.332 183.872C300.695 183.413 300.876 182.768 300.876 181.936C300.876 181.083 300.695 180.427 300.332 179.968C299.969 179.509 299.452 179.28 298.78 179.28C298.119 179.28 297.601 179.52 297.228 180C296.865 180.469 296.684 181.125 296.684 181.968C296.684 182.8 296.865 183.44 297.228 183.888C297.601 184.336 298.124 184.56 298.796 184.56ZM310.046 177.712C311.977 177.712 312.942 178.821 312.942 181.04V186H310.942V181.136C310.942 180.496 310.82 180.032 310.574 179.744C310.329 179.445 309.95 179.296 309.438 179.296C308.83 179.296 308.34 179.493 307.966 179.888C307.593 180.272 307.406 180.784 307.406 181.424V186H305.422V180.208C305.422 179.355 305.38 178.592 305.294 177.92H307.166L307.31 179.248C307.588 178.757 307.961 178.379 308.43 178.112C308.91 177.845 309.449 177.712 310.046 177.712ZM315.463 177.92H317.447V186H315.463V177.92ZM317.559 174.256V176.224H315.335V174.256H317.559ZM326.755 184.48V186H319.731V184.608L324.195 179.424H319.827V177.92H326.579V179.28L322.099 184.48H326.755ZM335.71 182.064H330.142C330.185 182.928 330.398 183.568 330.782 183.984C331.177 184.389 331.758 184.592 332.526 184.592C333.411 184.592 334.233 184.304 334.99 183.728L335.566 185.104C335.182 185.413 334.707 185.664 334.142 185.856C333.587 186.037 333.022 186.128 332.446 186.128C331.123 186.128 330.083 185.755 329.326 185.008C328.569 184.261 328.19 183.237 328.19 181.936C328.19 181.115 328.355 180.384 328.686 179.744C329.017 179.104 329.481 178.608 330.078 178.256C330.675 177.893 331.353 177.712 332.11 177.712C333.219 177.712 334.094 178.075 334.734 178.8C335.385 179.515 335.71 180.501 335.71 181.76V182.064ZM332.158 179.152C331.625 179.152 331.187 179.312 330.846 179.632C330.515 179.941 330.302 180.395 330.206 180.992H333.966C333.902 180.384 333.715 179.925 333.406 179.616C333.107 179.307 332.691 179.152 332.158 179.152ZM350.322 177.92V186H348.354V184.704C348.109 185.152 347.757 185.504 347.298 185.76C346.84 186.005 346.317 186.128 345.73 186.128C345.026 186.128 344.402 185.957 343.858 185.616C343.314 185.275 342.893 184.789 342.594 184.16C342.296 183.531 342.146 182.8 342.146 181.968C342.146 181.136 342.296 180.4 342.594 179.76C342.904 179.109 343.33 178.608 343.874 178.256C344.418 177.893 345.037 177.712 345.73 177.712C346.317 177.712 346.84 177.84 347.298 178.096C347.757 178.341 348.109 178.688 348.354 179.136V177.92H350.322ZM346.274 184.56C346.936 184.56 347.448 184.331 347.81 183.872C348.173 183.413 348.354 182.768 348.354 181.936C348.354 181.083 348.173 180.427 347.81 179.968C347.448 179.509 346.93 179.28 346.258 179.28C345.597 179.28 345.08 179.52 344.706 180C344.344 180.469 344.162 181.125 344.162 181.968C344.162 182.8 344.344 183.44 344.706 183.888C345.08 184.336 345.602 184.56 346.274 184.56ZM355.861 186.128C354.399 186.128 353.237 185.787 352.373 185.104L352.933 183.696C353.797 184.336 354.783 184.656 355.893 184.656C356.373 184.656 356.741 184.576 356.997 184.416C357.263 184.256 357.397 184.032 357.397 183.744C357.397 183.499 357.306 183.307 357.125 183.168C356.943 183.019 356.634 182.891 356.197 182.784L354.853 182.48C353.381 182.16 352.645 181.408 352.645 180.224C352.645 179.733 352.783 179.301 353.061 178.928C353.338 178.544 353.727 178.245 354.229 178.032C354.73 177.819 355.311 177.712 355.973 177.712C356.549 177.712 357.103 177.803 357.637 177.984C358.17 178.155 358.639 178.405 359.045 178.736L358.453 180.096C357.642 179.499 356.81 179.2 355.957 179.2C355.498 179.2 355.141 179.285 354.885 179.456C354.629 179.627 354.501 179.861 354.501 180.16C354.501 180.395 354.575 180.581 354.725 180.72C354.885 180.859 355.151 180.976 355.525 181.072L356.901 181.376C357.701 181.557 358.282 181.84 358.645 182.224C359.018 182.597 359.205 183.088 359.205 183.696C359.205 184.443 358.906 185.035 358.309 185.472C357.711 185.909 356.895 186.128 355.861 186.128ZM284.604 202.064H279.036C279.078 202.928 279.292 203.568 279.676 203.984C280.07 204.389 280.652 204.592 281.42 204.592C282.305 204.592 283.126 204.304 283.884 203.728L284.46 205.104C284.076 205.413 283.601 205.664 283.036 205.856C282.481 206.037 281.916 206.128 281.34 206.128C280.017 206.128 278.977 205.755 278.22 205.008C277.462 204.261 277.084 203.237 277.084 201.936C277.084 201.115 277.249 200.384 277.58 199.744C277.91 199.104 278.374 198.608 278.972 198.256C279.569 197.893 280.246 197.712 281.004 197.712C282.113 197.712 282.988 198.075 283.628 198.8C284.278 199.515 284.604 200.501 284.604 201.76V202.064ZM281.052 199.152C280.518 199.152 280.081 199.312 279.74 199.632C279.409 199.941 279.196 200.395 279.1 200.992H282.86C282.796 200.384 282.609 199.925 282.3 199.616C282.001 199.307 281.585 199.152 281.052 199.152ZM291.321 197.712C293.252 197.712 294.217 198.821 294.217 201.04V206H292.217V201.136C292.217 200.496 292.095 200.032 291.849 199.744C291.604 199.445 291.225 199.296 290.713 199.296C290.105 199.296 289.615 199.493 289.241 199.888C288.868 200.272 288.681 200.784 288.681 201.424V206H286.697V200.208C286.697 199.355 286.655 198.592 286.569 197.92H288.441L288.585 199.248C288.863 198.757 289.236 198.379 289.705 198.112C290.185 197.845 290.724 197.712 291.321 197.712ZM299.282 199.424V203.04C299.282 203.989 299.725 204.464 300.61 204.464C300.855 204.464 301.122 204.421 301.41 204.336V205.92C301.058 206.048 300.631 206.112 300.13 206.112C299.213 206.112 298.509 205.856 298.018 205.344C297.527 204.832 297.282 204.096 297.282 203.136V199.424H295.73V197.92H297.282V195.952L299.282 195.28V197.92H301.426V199.424H299.282ZM307.552 197.728C307.862 197.728 308.128 197.771 308.352 197.856L308.336 199.68C307.995 199.541 307.643 199.472 307.28 199.472C306.598 199.472 306.075 199.669 305.712 200.064C305.36 200.459 305.184 200.981 305.184 201.632V206H303.2V200.208C303.2 199.355 303.158 198.592 303.072 197.92H304.944L305.104 199.344C305.307 198.821 305.627 198.421 306.064 198.144C306.502 197.867 306.998 197.728 307.552 197.728ZM317.438 197.92V206H315.47V204.704C315.225 205.152 314.873 205.504 314.414 205.76C313.955 206.005 313.433 206.128 312.846 206.128C312.142 206.128 311.518 205.957 310.974 205.616C310.43 205.275 310.009 204.789 309.71 204.16C309.411 203.531 309.262 202.8 309.262 201.968C309.262 201.136 309.411 200.4 309.71 199.76C310.019 199.109 310.446 198.608 310.99 198.256C311.534 197.893 312.153 197.712 312.846 197.712C313.433 197.712 313.955 197.84 314.414 198.096C314.873 198.341 315.225 198.688 315.47 199.136V197.92H317.438ZM313.39 204.56C314.051 204.56 314.563 204.331 314.926 203.872C315.289 203.413 315.47 202.768 315.47 201.936C315.47 201.083 315.289 200.427 314.926 199.968C314.563 199.509 314.046 199.28 313.374 199.28C312.713 199.28 312.195 199.52 311.822 200C311.459 200.469 311.278 201.125 311.278 201.968C311.278 202.8 311.459 203.44 311.822 203.888C312.195 204.336 312.718 204.56 313.39 204.56ZM327.744 194.224V206H325.776V204.704C325.531 205.152 325.179 205.504 324.72 205.76C324.261 206.005 323.739 206.128 323.152 206.128C322.459 206.128 321.84 205.952 321.296 205.6C320.752 205.248 320.325 204.752 320.016 204.112C319.717 203.461 319.568 202.72 319.568 201.888C319.568 201.056 319.717 200.325 320.016 199.696C320.315 199.067 320.736 198.581 321.28 198.24C321.824 197.888 322.448 197.712 323.152 197.712C323.728 197.712 324.24 197.835 324.688 198.08C325.147 198.315 325.499 198.651 325.744 199.088V194.224H327.744ZM323.68 204.56C324.341 204.56 324.853 204.331 325.216 203.872C325.589 203.413 325.776 202.763 325.776 201.92C325.776 201.077 325.595 200.427 325.232 199.968C324.869 199.509 324.357 199.28 323.696 199.28C323.024 199.28 322.501 199.509 322.128 199.968C321.765 200.416 321.584 201.056 321.584 201.888C321.584 202.731 321.765 203.387 322.128 203.856C322.501 204.325 323.019 204.56 323.68 204.56ZM338.05 197.92V206H336.082V204.704C335.837 205.152 335.485 205.504 335.026 205.76C334.568 206.005 334.045 206.128 333.458 206.128C332.754 206.128 332.13 205.957 331.586 205.616C331.042 205.275 330.621 204.789 330.322 204.16C330.024 203.531 329.874 202.8 329.874 201.968C329.874 201.136 330.024 200.4 330.322 199.76C330.632 199.109 331.058 198.608 331.602 198.256C332.146 197.893 332.765 197.712 333.458 197.712C334.045 197.712 334.568 197.84 335.026 198.096C335.485 198.341 335.837 198.688 336.082 199.136V197.92H338.05ZM334.002 204.56C334.664 204.56 335.176 204.331 335.538 203.872C335.901 203.413 336.082 202.768 336.082 201.936C336.082 201.083 335.901 200.427 335.538 199.968C335.176 199.509 334.658 199.28 333.986 199.28C333.325 199.28 332.808 199.52 332.434 200C332.072 200.469 331.89 201.125 331.89 201.968C331.89 202.8 332.072 203.44 332.434 203.888C332.808 204.336 333.33 204.56 334.002 204.56ZM343.589 206.128C342.127 206.128 340.965 205.787 340.101 205.104L340.661 203.696C341.525 204.336 342.511 204.656 343.621 204.656C344.101 204.656 344.469 204.576 344.725 204.416C344.991 204.256 345.125 204.032 345.125 203.744C345.125 203.499 345.034 203.307 344.853 203.168C344.671 203.019 344.362 202.891 343.925 202.784L342.581 202.48C341.109 202.16 340.373 201.408 340.373 200.224C340.373 199.733 340.511 199.301 340.789 198.928C341.066 198.544 341.455 198.245 341.957 198.032C342.458 197.819 343.039 197.712 343.701 197.712C344.277 197.712 344.831 197.803 345.365 197.984C345.898 198.155 346.367 198.405 346.773 198.736L346.181 200.096C345.37 199.499 344.538 199.2 343.685 199.2C343.226 199.2 342.869 199.285 342.613 199.456C342.357 199.627 342.229 199.861 342.229 200.16C342.229 200.395 342.303 200.581 342.453 200.72C342.613 200.859 342.879 200.976 343.253 201.072L344.629 201.376C345.429 201.557 346.01 201.84 346.373 202.224C346.746 202.597 346.933 203.088 346.933 203.696C346.933 204.443 346.634 205.035 346.037 205.472C345.439 205.909 344.623 206.128 343.589 206.128Z" fill="#9FA2B4"/>
<path d="M461.237 174.608H466.181C467.407 174.608 468.362 174.907 469.045 175.504C469.727 176.091 470.069 176.896 470.069 177.92C470.069 178.944 469.722 179.755 469.029 180.352C468.346 180.949 467.397 181.248 466.181 181.248H463.301V186H461.237V174.608ZM465.941 179.648C466.655 179.648 467.194 179.504 467.557 179.216C467.93 178.917 468.117 178.491 468.117 177.936C468.117 177.371 467.935 176.944 467.573 176.656C467.21 176.357 466.666 176.208 465.941 176.208H463.301V179.648H465.941ZM472.149 174.224H474.133V186H472.149V174.224ZM484.449 177.92V186H482.481V184.704C482.235 185.152 481.883 185.504 481.425 185.76C480.966 186.005 480.443 186.128 479.857 186.128C479.153 186.128 478.529 185.957 477.985 185.616C477.441 185.275 477.019 184.789 476.721 184.16C476.422 183.531 476.273 182.8 476.273 181.968C476.273 181.136 476.422 180.4 476.721 179.76C477.03 179.109 477.457 178.608 478.001 178.256C478.545 177.893 479.163 177.712 479.857 177.712C480.443 177.712 480.966 177.84 481.425 178.096C481.883 178.341 482.235 178.688 482.481 179.136V177.92H484.449ZM480.401 184.56C481.062 184.56 481.574 184.331 481.937 183.872C482.299 183.413 482.481 182.768 482.481 181.936C482.481 181.083 482.299 180.427 481.937 179.968C481.574 179.509 481.057 179.28 480.385 179.28C479.723 179.28 479.206 179.52 478.833 180C478.47 180.469 478.289 181.125 478.289 181.968C478.289 182.8 478.47 183.44 478.833 183.888C479.206 184.336 479.729 184.56 480.401 184.56ZM491.651 177.712C493.582 177.712 494.547 178.821 494.547 181.04V186H492.547V181.136C492.547 180.496 492.424 180.032 492.179 179.744C491.934 179.445 491.555 179.296 491.043 179.296C490.435 179.296 489.944 179.493 489.571 179.888C489.198 180.272 489.011 180.784 489.011 181.424V186H487.027V180.208C487.027 179.355 486.984 178.592 486.899 177.92H488.771L488.915 179.248C489.192 178.757 489.566 178.379 490.035 178.112C490.515 177.845 491.054 177.712 491.651 177.712ZM504.14 182.064H498.572C498.614 182.928 498.828 183.568 499.212 183.984C499.606 184.389 500.188 184.592 500.956 184.592C501.841 184.592 502.662 184.304 503.42 183.728L503.996 185.104C503.612 185.413 503.137 185.664 502.572 185.856C502.017 186.037 501.452 186.128 500.876 186.128C499.553 186.128 498.513 185.755 497.756 185.008C496.998 184.261 496.62 183.237 496.62 181.936C496.62 181.115 496.785 180.384 497.116 179.744C497.446 179.104 497.91 178.608 498.508 178.256C499.105 177.893 499.782 177.712 500.54 177.712C501.649 177.712 502.524 178.075 503.164 178.8C503.814 179.515 504.14 180.501 504.14 181.76V182.064ZM500.588 179.152C500.054 179.152 499.617 179.312 499.276 179.632C498.945 179.941 498.732 180.395 498.636 180.992H502.396C502.332 180.384 502.145 179.925 501.836 179.616C501.537 179.307 501.121 179.152 500.588 179.152ZM504.169 187.776C504.457 187.861 504.719 187.904 504.953 187.904C505.337 187.904 505.647 187.792 505.881 187.568C506.116 187.344 506.233 186.981 506.233 186.48V177.92H508.217V186.576C508.217 187.536 507.972 188.272 507.481 188.784C507.001 189.296 506.313 189.552 505.417 189.552C504.937 189.552 504.521 189.493 504.169 189.376V187.776ZM508.329 174.256V176.224H506.105V174.256H508.329ZM517.877 182.064H512.309C512.352 182.928 512.565 183.568 512.949 183.984C513.344 184.389 513.925 184.592 514.693 184.592C515.579 184.592 516.4 184.304 517.157 183.728L517.733 185.104C517.349 185.413 516.875 185.664 516.309 185.856C515.755 186.037 515.189 186.128 514.613 186.128C513.291 186.128 512.251 185.755 511.493 185.008C510.736 184.261 510.357 183.237 510.357 181.936C510.357 181.115 510.523 180.384 510.853 179.744C511.184 179.104 511.648 178.608 512.245 178.256C512.843 177.893 513.52 177.712 514.277 177.712C515.387 177.712 516.261 178.075 516.901 178.8C517.552 179.515 517.877 180.501 517.877 181.76V182.064ZM514.325 179.152C513.792 179.152 513.355 179.312 513.013 179.632C512.683 179.941 512.469 180.395 512.373 180.992H516.133C516.069 180.384 515.883 179.925 515.573 179.616C515.275 179.307 514.859 179.152 514.325 179.152ZM532.489 177.92V186H530.521V184.704C530.276 185.152 529.924 185.504 529.465 185.76C529.007 186.005 528.484 186.128 527.897 186.128C527.193 186.128 526.569 185.957 526.025 185.616C525.481 185.275 525.06 184.789 524.761 184.16C524.463 183.531 524.313 182.8 524.313 181.968C524.313 181.136 524.463 180.4 524.761 179.76C525.071 179.109 525.497 178.608 526.041 178.256C526.585 177.893 527.204 177.712 527.897 177.712C528.484 177.712 529.007 177.84 529.465 178.096C529.924 178.341 530.276 178.688 530.521 179.136V177.92H532.489ZM528.441 184.56C529.103 184.56 529.615 184.331 529.977 183.872C530.34 183.413 530.521 182.768 530.521 181.936C530.521 181.083 530.34 180.427 529.977 179.968C529.615 179.509 529.097 179.28 528.425 179.28C527.764 179.28 527.247 179.52 526.873 180C526.511 180.469 526.329 181.125 526.329 181.968C526.329 182.8 526.511 183.44 526.873 183.888C527.247 184.336 527.769 184.56 528.441 184.56ZM538.028 186.128C536.566 186.128 535.404 185.787 534.54 185.104L535.1 183.696C535.964 184.336 536.95 184.656 538.06 184.656C538.54 184.656 538.908 184.576 539.164 184.416C539.43 184.256 539.564 184.032 539.564 183.744C539.564 183.499 539.473 183.307 539.292 183.168C539.11 183.019 538.801 182.891 538.364 182.784L537.02 182.48C535.548 182.16 534.812 181.408 534.812 180.224C534.812 179.733 534.95 179.301 535.228 178.928C535.505 178.544 535.894 178.245 536.396 178.032C536.897 177.819 537.478 177.712 538.14 177.712C538.716 177.712 539.27 177.803 539.804 177.984C540.337 178.155 540.806 178.405 541.212 178.736L540.62 180.096C539.809 179.499 538.977 179.2 538.124 179.2C537.665 179.2 537.308 179.285 537.052 179.456C536.796 179.627 536.668 179.861 536.668 180.16C536.668 180.395 536.742 180.581 536.892 180.72C537.052 180.859 537.318 180.976 537.692 181.072L539.068 181.376C539.868 181.557 540.449 181.84 540.812 182.224C541.185 182.597 541.372 183.088 541.372 183.696C541.372 184.443 541.073 185.035 540.476 185.472C539.878 185.909 539.062 186.128 538.028 186.128ZM479.087 206.128C477.626 206.128 476.463 205.787 475.599 205.104L476.159 203.696C477.023 204.336 478.01 204.656 479.119 204.656C479.599 204.656 479.967 204.576 480.223 204.416C480.49 204.256 480.623 204.032 480.623 203.744C480.623 203.499 480.532 203.307 480.351 203.168C480.17 203.019 479.86 202.891 479.423 202.784L478.079 202.48C476.607 202.16 475.871 201.408 475.871 200.224C475.871 199.733 476.01 199.301 476.287 198.928C476.564 198.544 476.954 198.245 477.455 198.032C477.956 197.819 478.538 197.712 479.199 197.712C479.775 197.712 480.33 197.803 480.863 197.984C481.396 198.155 481.866 198.405 482.271 198.736L481.679 200.096C480.868 199.499 480.036 199.2 479.183 199.2C478.724 199.2 478.367 199.285 478.111 199.456C477.855 199.627 477.727 199.861 477.727 200.16C477.727 200.395 477.802 200.581 477.951 200.72C478.111 200.859 478.378 200.976 478.751 201.072L480.127 201.376C480.927 201.557 481.508 201.84 481.871 202.224C482.244 202.597 482.431 203.088 482.431 203.696C482.431 204.443 482.132 205.035 481.535 205.472C480.938 205.909 480.122 206.128 479.087 206.128ZM492.271 197.92V206H490.303V204.704C490.057 205.152 489.705 205.504 489.247 205.76C488.788 206.005 488.265 206.128 487.679 206.128C486.975 206.128 486.351 205.957 485.807 205.616C485.263 205.275 484.841 204.789 484.543 204.16C484.244 203.531 484.095 202.8 484.095 201.968C484.095 201.136 484.244 200.4 484.543 199.76C484.852 199.109 485.279 198.608 485.823 198.256C486.367 197.893 486.985 197.712 487.679 197.712C488.265 197.712 488.788 197.84 489.247 198.096C489.705 198.341 490.057 198.688 490.303 199.136V197.92H492.271ZM488.223 204.56C488.884 204.56 489.396 204.331 489.759 203.872C490.121 203.413 490.303 202.768 490.303 201.936C490.303 201.083 490.121 200.427 489.759 199.968C489.396 199.509 488.879 199.28 488.207 199.28C487.545 199.28 487.028 199.52 486.655 200C486.292 200.469 486.111 201.125 486.111 201.968C486.111 202.8 486.292 203.44 486.655 203.888C487.028 204.336 487.551 204.56 488.223 204.56ZM494.849 197.92H496.833V206H494.849V197.92ZM495.185 196.88L496.785 193.584H498.833L496.481 196.88H495.185ZM507.149 194.224V206H505.181V204.704C504.935 205.152 504.583 205.504 504.125 205.76C503.666 206.005 503.143 206.128 502.557 206.128C501.863 206.128 501.245 205.952 500.701 205.6C500.157 205.248 499.73 204.752 499.421 204.112C499.122 203.461 498.973 202.72 498.973 201.888C498.973 201.056 499.122 200.325 499.421 199.696C499.719 199.067 500.141 198.581 500.685 198.24C501.229 197.888 501.853 197.712 502.557 197.712C503.133 197.712 503.645 197.835 504.093 198.08C504.551 198.315 504.903 198.651 505.149 199.088V194.224H507.149ZM503.085 204.56C503.746 204.56 504.258 204.331 504.621 203.872C504.994 203.413 505.181 202.763 505.181 201.92C505.181 201.077 504.999 200.427 504.637 199.968C504.274 199.509 503.762 199.28 503.101 199.28C502.429 199.28 501.906 199.509 501.533 199.968C501.17 200.416 500.989 201.056 500.989 201.888C500.989 202.731 501.17 203.387 501.533 203.856C501.906 204.325 502.423 204.56 503.085 204.56ZM517.455 197.92V206H515.487V204.704C515.242 205.152 514.89 205.504 514.431 205.76C513.972 206.005 513.45 206.128 512.863 206.128C512.159 206.128 511.535 205.957 510.991 205.616C510.447 205.275 510.026 204.789 509.727 204.16C509.428 203.531 509.279 202.8 509.279 201.968C509.279 201.136 509.428 200.4 509.727 199.76C510.036 199.109 510.463 198.608 511.007 198.256C511.551 197.893 512.17 197.712 512.863 197.712C513.45 197.712 513.972 197.84 514.431 198.096C514.89 198.341 515.242 198.688 515.487 199.136V197.92H517.455ZM513.407 204.56C514.068 204.56 514.58 204.331 514.943 203.872C515.306 203.413 515.487 202.768 515.487 201.936C515.487 201.083 515.306 200.427 514.943 199.968C514.58 199.509 514.063 199.28 513.391 199.28C512.73 199.28 512.212 199.52 511.839 200C511.476 200.469 511.295 201.125 511.295 201.968C511.295 202.8 511.476 203.44 511.839 203.888C512.212 204.336 512.735 204.56 513.407 204.56ZM522.993 206.128C521.532 206.128 520.369 205.787 519.505 205.104L520.065 203.696C520.929 204.336 521.916 204.656 523.025 204.656C523.505 204.656 523.873 204.576 524.129 204.416C524.396 204.256 524.529 204.032 524.529 203.744C524.529 203.499 524.439 203.307 524.257 203.168C524.076 203.019 523.767 202.891 523.329 202.784L521.985 202.48C520.513 202.16 519.777 201.408 519.777 200.224C519.777 199.733 519.916 199.301 520.193 198.928C520.471 198.544 520.86 198.245 521.361 198.032C521.863 197.819 522.444 197.712 523.105 197.712C523.681 197.712 524.236 197.803 524.769 197.984C525.303 198.155 525.772 198.405 526.177 198.736L525.585 200.096C524.775 199.499 523.943 199.2 523.089 199.2C522.631 199.2 522.273 199.285 522.017 199.456C521.761 199.627 521.633 199.861 521.633 200.16C521.633 200.395 521.708 200.581 521.857 200.72C522.017 200.859 522.284 200.976 522.657 201.072L524.033 201.376C524.833 201.557 525.415 201.84 525.777 202.224C526.151 202.597 526.337 203.088 526.337 203.696C526.337 204.443 526.039 205.035 525.441 205.472C524.844 205.909 524.028 206.128 522.993 206.128Z" fill="#9FA2B4"/>
<path d="M652.686 186.144C651.588 186.144 650.628 185.909 649.806 185.44C648.996 184.96 648.366 184.283 647.918 183.408C647.481 182.523 647.262 181.483 647.262 180.288C647.262 179.104 647.481 178.075 647.918 177.2C648.356 176.315 648.98 175.637 649.79 175.168C650.612 174.699 651.577 174.464 652.686 174.464C653.796 174.464 654.756 174.699 655.566 175.168C656.388 175.637 657.012 176.315 657.438 177.2C657.876 178.075 658.094 179.104 658.094 180.288C658.094 181.483 657.876 182.523 657.438 183.408C657.001 184.283 656.377 184.96 655.566 185.44C654.756 185.909 653.796 186.144 652.686 186.144ZM652.686 184.496C653.742 184.496 654.564 184.133 655.15 183.408C655.737 182.683 656.03 181.643 656.03 180.288C656.03 178.944 655.737 177.915 655.15 177.2C654.564 176.475 653.742 176.112 652.686 176.112C651.63 176.112 650.809 176.469 650.222 177.184C649.636 177.899 649.342 178.933 649.342 180.288C649.342 181.643 649.636 182.683 650.222 183.408C650.809 184.133 651.63 184.496 652.686 184.496ZM664.817 177.728C665.126 177.728 665.393 177.771 665.617 177.856L665.601 179.68C665.259 179.541 664.907 179.472 664.545 179.472C663.862 179.472 663.339 179.669 662.977 180.064C662.625 180.459 662.449 180.981 662.449 181.632V186H660.465V180.208C660.465 179.355 660.422 178.592 660.337 177.92H662.209L662.369 179.344C662.571 178.821 662.891 178.421 663.329 178.144C663.766 177.867 664.262 177.728 664.817 177.728ZM674.782 177.92V185.744C674.782 187.003 674.435 187.957 673.742 188.608C673.049 189.259 672.03 189.584 670.686 189.584C669.438 189.584 668.339 189.323 667.39 188.8L667.71 187.28C668.691 187.792 669.667 188.048 670.638 188.048C672.078 188.048 672.798 187.333 672.798 185.904V184.304C672.553 184.741 672.195 185.099 671.726 185.376C671.257 185.643 670.729 185.776 670.142 185.776C669.438 185.776 668.809 185.611 668.254 185.28C667.71 184.939 667.283 184.464 666.974 183.856C666.675 183.237 666.526 182.533 666.526 181.744C666.526 180.955 666.675 180.256 666.974 179.648C667.283 179.029 667.71 178.555 668.254 178.224C668.809 177.883 669.438 177.712 670.142 177.712C670.739 177.712 671.267 177.84 671.726 178.096C672.195 178.341 672.553 178.688 672.798 179.136V177.92H674.782ZM670.67 184.208C671.331 184.208 671.849 183.989 672.222 183.552C672.606 183.115 672.798 182.512 672.798 181.744C672.798 180.976 672.611 180.373 672.238 179.936C671.865 179.499 671.342 179.28 670.67 179.28C670.009 179.28 669.486 179.499 669.102 179.936C668.729 180.373 668.542 180.976 668.542 181.744C668.542 182.512 668.729 183.115 669.102 183.552C669.486 183.989 670.009 184.208 670.67 184.208ZM685.071 177.92V186H683.103V184.704C682.857 185.152 682.505 185.504 682.047 185.76C681.588 186.005 681.065 186.128 680.479 186.128C679.775 186.128 679.151 185.957 678.607 185.616C678.063 185.275 677.641 184.789 677.343 184.16C677.044 183.531 676.895 182.8 676.895 181.968C676.895 181.136 677.044 180.4 677.343 179.76C677.652 179.109 678.079 178.608 678.623 178.256C679.167 177.893 679.785 177.712 680.479 177.712C681.065 177.712 681.588 177.84 682.047 178.096C682.505 178.341 682.857 178.688 683.103 179.136V177.92H685.071ZM681.023 184.56C681.684 184.56 682.196 184.331 682.559 183.872C682.921 183.413 683.103 182.768 683.103 181.936C683.103 181.083 682.921 180.427 682.559 179.968C682.196 179.509 681.679 179.28 681.007 179.28C680.345 179.28 679.828 179.52 679.455 180C679.092 180.469 678.911 181.125 678.911 181.968C678.911 182.8 679.092 183.44 679.455 183.888C679.828 184.336 680.351 184.56 681.023 184.56ZM692.273 177.712C694.204 177.712 695.169 178.821 695.169 181.04V186H693.169V181.136C693.169 180.496 693.046 180.032 692.801 179.744C692.556 179.445 692.177 179.296 691.665 179.296C691.057 179.296 690.566 179.493 690.193 179.888C689.82 180.272 689.633 180.784 689.633 181.424V186H687.649V180.208C687.649 179.355 687.606 178.592 687.521 177.92H689.393L689.537 179.248C689.814 178.757 690.188 178.379 690.657 178.112C691.137 177.845 691.676 177.712 692.273 177.712ZM697.69 177.92H699.674V186H697.69V177.92ZM699.786 174.256V176.224H697.562V174.256H699.786ZM708.981 184.48V186H701.957V184.608L706.421 179.424H702.053V177.92H708.805V179.28L704.325 184.48H708.981ZM717.937 182.064H712.369C712.411 182.928 712.625 183.568 713.009 183.984C713.403 184.389 713.985 184.592 714.753 184.592C715.638 184.592 716.459 184.304 717.217 183.728L717.793 185.104C717.409 185.413 716.934 185.664 716.369 185.856C715.814 186.037 715.249 186.128 714.673 186.128C713.35 186.128 712.31 185.755 711.553 185.008C710.795 184.261 710.417 183.237 710.417 181.936C710.417 181.115 710.582 180.384 710.913 179.744C711.243 179.104 711.707 178.608 712.305 178.256C712.902 177.893 713.579 177.712 714.337 177.712C715.446 177.712 716.321 178.075 716.961 178.8C717.611 179.515 717.937 180.501 717.937 181.76V182.064ZM714.385 179.152C713.851 179.152 713.414 179.312 713.073 179.632C712.742 179.941 712.529 180.395 712.433 180.992H716.193C716.129 180.384 715.942 179.925 715.633 179.616C715.334 179.307 714.918 179.152 714.385 179.152ZM728.485 186.128C727.663 186.128 726.938 185.957 726.309 185.616C725.69 185.275 725.21 184.789 724.869 184.16C724.538 183.52 724.373 182.773 724.373 181.92C724.373 181.067 724.538 180.325 724.869 179.696C725.21 179.056 725.69 178.565 726.309 178.224C726.938 177.883 727.663 177.712 728.485 177.712C729.295 177.712 730.01 177.883 730.629 178.224C731.247 178.565 731.722 179.056 732.053 179.696C732.394 180.325 732.565 181.067 732.565 181.92C732.565 182.773 732.394 183.52 732.053 184.16C731.722 184.789 731.247 185.275 730.629 185.616C730.01 185.957 729.295 186.128 728.485 186.128ZM728.469 184.56C729.151 184.56 729.669 184.341 730.021 183.904C730.383 183.456 730.565 182.795 730.565 181.92C730.565 181.056 730.383 180.4 730.021 179.952C729.658 179.493 729.146 179.264 728.485 179.264C727.813 179.264 727.295 179.493 726.933 179.952C726.57 180.4 726.389 181.056 726.389 181.92C726.389 182.795 726.565 183.456 726.917 183.904C727.279 184.341 727.797 184.56 728.469 184.56ZM670.623 195.808C669.759 195.808 669.327 196.283 669.327 197.232V197.92H671.135V199.424H669.327V206H667.327V199.424H665.791V197.92H667.327V197.136C667.327 196.176 667.567 195.44 668.047 194.928C668.538 194.405 669.236 194.144 670.143 194.144C670.644 194.144 671.066 194.208 671.407 194.336V195.92C671.108 195.845 670.847 195.808 670.623 195.808ZM680.434 197.92V206H678.482V204.752C678.226 205.2 677.885 205.541 677.458 205.776C677.031 206.011 676.541 206.128 675.986 206.128C674.013 206.128 673.026 205.019 673.026 202.8V197.92H675.01V202.816C675.01 203.403 675.127 203.835 675.362 204.112C675.607 204.389 675.981 204.528 676.482 204.528C677.069 204.528 677.538 204.336 677.89 203.952C678.242 203.568 678.418 203.056 678.418 202.416V197.92H680.434ZM685.549 199.424V203.04C685.549 203.989 685.992 204.464 686.877 204.464C687.123 204.464 687.389 204.421 687.677 204.336V205.92C687.325 206.048 686.899 206.112 686.397 206.112C685.48 206.112 684.776 205.856 684.285 205.344C683.795 204.832 683.549 204.096 683.549 203.136V199.424H681.997V197.92H683.549V195.952L685.549 195.28V197.92H687.693V199.424H685.549ZM696.828 197.92V206H694.876V204.752C694.62 205.2 694.278 205.541 693.852 205.776C693.425 206.011 692.934 206.128 692.38 206.128C690.406 206.128 689.42 205.019 689.42 202.8V197.92H691.404V202.816C691.404 203.403 691.521 203.835 691.756 204.112C692.001 204.389 692.374 204.528 692.876 204.528C693.462 204.528 693.932 204.336 694.284 203.952C694.636 203.568 694.812 203.056 694.812 202.416V197.92H696.828ZM703.751 197.728C704.06 197.728 704.327 197.771 704.551 197.856L704.535 199.68C704.194 199.541 703.842 199.472 703.479 199.472C702.796 199.472 702.274 199.669 701.911 200.064C701.559 200.459 701.383 200.981 701.383 201.632V206H699.399V200.208C699.399 199.355 699.356 198.592 699.271 197.92H701.143L701.303 199.344C701.506 198.821 701.826 198.421 702.263 198.144C702.7 197.867 703.196 197.728 703.751 197.728ZM709.572 206.128C708.751 206.128 708.026 205.957 707.396 205.616C706.778 205.275 706.298 204.789 705.956 204.16C705.626 203.52 705.46 202.773 705.46 201.92C705.46 201.067 705.626 200.325 705.956 199.696C706.298 199.056 706.778 198.565 707.396 198.224C708.026 197.883 708.751 197.712 709.572 197.712C710.383 197.712 711.098 197.883 711.716 198.224C712.335 198.565 712.81 199.056 713.14 199.696C713.482 200.325 713.652 201.067 713.652 201.92C713.652 202.773 713.482 203.52 713.14 204.16C712.81 204.789 712.335 205.275 711.716 205.616C711.098 205.957 710.383 206.128 709.572 206.128ZM709.556 204.56C710.239 204.56 710.756 204.341 711.108 203.904C711.471 203.456 711.652 202.795 711.652 201.92C711.652 201.056 711.471 200.4 711.108 199.952C710.746 199.493 710.234 199.264 709.572 199.264C708.9 199.264 708.383 199.493 708.02 199.952C707.658 200.4 707.476 201.056 707.476 201.92C707.476 202.795 707.652 203.456 708.004 203.904C708.367 204.341 708.884 204.56 709.556 204.56Z" fill="#9FA2B4"/>
<circle cx="312" cy="119" r="20" fill="#FE9898"/>
<circle cx="501" cy="119" r="20" fill="#FE9898"/>
<circle cx="690" cy="119" r="20" fill="#FE9898"/>
<rect x="863" y="99" width="192" height="40" rx="10" fill="#FE9898"/>
<path d="M920.046 117.81C920.85 117.81 921.558 117.984 922.17 118.332C922.782 118.668 923.256 119.148 923.592 119.772C923.928 120.384 924.096 121.092 924.096 121.896C924.096 122.736 923.904 123.48 923.52 124.128C923.136 124.764 922.584 125.262 921.864 125.622C921.144 125.97 920.31 126.144 919.362 126.144C918.558 126.144 917.766 126.012 916.986 125.748C916.206 125.472 915.564 125.106 915.06 124.65L915.834 122.958C916.998 123.846 918.186 124.29 919.398 124.29C920.202 124.29 920.814 124.092 921.234 123.696C921.666 123.288 921.882 122.712 921.882 121.968C921.882 121.26 921.66 120.696 921.216 120.276C920.784 119.844 920.202 119.628 919.47 119.628C918.966 119.628 918.492 119.724 918.048 119.916C917.604 120.096 917.214 120.366 916.878 120.726H915.474V113.184H923.502V114.984H917.742V118.476C918.39 118.032 919.158 117.81 920.046 117.81ZM930.455 126.162C928.931 126.162 927.767 125.604 926.963 124.488C926.171 123.36 925.775 121.722 925.775 119.574C925.775 117.462 926.171 115.848 926.963 114.732C927.767 113.616 928.931 113.058 930.455 113.058C931.979 113.058 933.137 113.616 933.929 114.732C934.733 115.836 935.135 117.45 935.135 119.574C935.135 121.71 934.733 123.342 933.929 124.47C933.137 125.598 931.979 126.162 930.455 126.162ZM930.455 124.344C931.283 124.344 931.883 123.966 932.255 123.21C932.639 122.442 932.831 121.23 932.831 119.574C932.831 117.942 932.639 116.754 932.255 116.01C931.883 115.254 931.283 114.876 930.455 114.876C929.627 114.876 929.021 115.254 928.637 116.01C928.265 116.754 928.079 117.942 928.079 119.574C928.079 121.23 928.265 122.442 928.637 123.21C929.021 123.966 929.627 124.344 930.455 124.344ZM947.795 116.676C948.575 116.676 949.265 116.88 949.865 117.288C950.477 117.684 950.951 118.248 951.287 118.98C951.635 119.7 951.809 120.528 951.809 121.464C951.809 122.4 951.641 123.222 951.305 123.93C950.969 124.638 950.495 125.184 949.883 125.568C949.283 125.952 948.587 126.144 947.795 126.144C947.135 126.144 946.547 126.006 946.031 125.73C945.515 125.442 945.119 125.046 944.843 124.542V129.888H942.611V119.484C942.611 118.524 942.563 117.666 942.467 116.91H944.573L944.753 118.476C944.993 117.912 945.383 117.474 945.923 117.162C946.463 116.838 947.087 116.676 947.795 116.676ZM947.183 124.38C947.939 124.38 948.521 124.128 948.929 123.624C949.337 123.12 949.541 122.4 949.541 121.464C949.541 120.516 949.337 119.778 948.929 119.25C948.521 118.71 947.945 118.44 947.201 118.44C946.433 118.44 945.845 118.698 945.437 119.214C945.029 119.73 944.825 120.468 944.825 121.428C944.825 122.376 945.029 123.108 945.437 123.624C945.845 124.128 946.427 124.38 947.183 124.38ZM958.196 126.144C957.272 126.144 956.456 125.952 955.748 125.568C955.052 125.184 954.512 124.638 954.128 123.93C953.756 123.21 953.57 122.37 953.57 121.41C953.57 120.45 953.756 119.616 954.128 118.908C954.512 118.188 955.052 117.636 955.748 117.252C956.456 116.868 957.272 116.676 958.196 116.676C959.108 116.676 959.912 116.868 960.608 117.252C961.304 117.636 961.838 118.188 962.21 118.908C962.594 119.616 962.786 120.45 962.786 121.41C962.786 122.37 962.594 123.21 962.21 123.93C961.838 124.638 961.304 125.184 960.608 125.568C959.912 125.952 959.108 126.144 958.196 126.144ZM958.178 124.38C958.946 124.38 959.528 124.134 959.924 123.642C960.332 123.138 960.536 122.394 960.536 121.41C960.536 120.438 960.332 119.7 959.924 119.196C959.516 118.68 958.94 118.422 958.196 118.422C957.44 118.422 956.858 118.68 956.45 119.196C956.042 119.7 955.838 120.438 955.838 121.41C955.838 122.394 956.036 123.138 956.432 123.642C956.84 124.134 957.422 124.38 958.178 124.38ZM970.228 116.676C972.4 116.676 973.486 117.924 973.486 120.42V126H971.236V120.528C971.236 119.808 971.098 119.286 970.822 118.962C970.546 118.626 970.12 118.458 969.544 118.458C968.86 118.458 968.308 118.68 967.888 119.124C967.468 119.556 967.258 120.132 967.258 120.852V126H965.026V119.484C965.026 118.524 964.978 117.666 964.882 116.91H966.988L967.15 118.404C967.462 117.852 967.882 117.426 968.41 117.126C968.95 116.826 969.556 116.676 970.228 116.676ZM979.034 118.602V122.67C979.034 123.738 979.532 124.272 980.528 124.272C980.804 124.272 981.104 124.224 981.428 124.128V125.91C981.032 126.054 980.552 126.126 979.988 126.126C978.956 126.126 978.164 125.838 977.612 125.262C977.06 124.686 976.784 123.858 976.784 122.778V118.602H975.038V116.91H976.784V114.696L979.034 113.94V116.91H981.446V118.602H979.034ZM987.414 126.144C986.49 126.144 985.674 125.952 984.966 125.568C984.27 125.184 983.73 124.638 983.346 123.93C982.974 123.21 982.788 122.37 982.788 121.41C982.788 120.45 982.974 119.616 983.346 118.908C983.73 118.188 984.27 117.636 984.966 117.252C985.674 116.868 986.49 116.676 987.414 116.676C988.326 116.676 989.13 116.868 989.826 117.252C990.522 117.636 991.056 118.188 991.428 118.908C991.812 119.616 992.004 120.45 992.004 121.41C992.004 122.37 991.812 123.21 991.428 123.93C991.056 124.638 990.522 125.184 989.826 125.568C989.13 125.952 988.326 126.144 987.414 126.144ZM987.396 124.38C988.164 124.38 988.746 124.134 989.142 123.642C989.55 123.138 989.754 122.394 989.754 121.41C989.754 120.438 989.55 119.7 989.142 119.196C988.734 118.68 988.158 118.422 987.414 118.422C986.658 118.422 986.076 118.68 985.668 119.196C985.26 119.7 985.056 120.438 985.056 121.41C985.056 122.394 985.254 123.138 985.65 123.642C986.058 124.134 986.64 124.38 987.396 124.38ZM997.574 126.144C995.93 126.144 994.622 125.76 993.65 124.992L994.28 123.408C995.252 124.128 996.362 124.488 997.61 124.488C998.15 124.488 998.564 124.398 998.852 124.218C999.152 124.038 999.302 123.786 999.302 123.462C999.302 123.186 999.2 122.97 998.996 122.814C998.792 122.646 998.444 122.502 997.952 122.382L996.44 122.04C994.784 121.68 993.956 120.834 993.956 119.502C993.956 118.95 994.112 118.464 994.424 118.044C994.736 117.612 995.174 117.276 995.738 117.036C996.302 116.796 996.956 116.676 997.7 116.676C998.348 116.676 998.972 116.778 999.572 116.982C1000.17 117.174 1000.7 117.456 1001.16 117.828L1000.49 119.358C999.578 118.686 998.642 118.35 997.682 118.35C997.166 118.35 996.764 118.446 996.476 118.638C996.188 118.83 996.044 119.094 996.044 119.43C996.044 119.694 996.128 119.904 996.296 120.06C996.476 120.216 996.776 120.348 997.196 120.456L998.744 120.798C999.644 121.002 1000.3 121.32 1000.71 121.752C1001.13 122.172 1001.34 122.724 1001.34 123.408C1001.34 124.248 1001 124.914 1000.33 125.406C999.656 125.898 998.738 126.144 997.574 126.144Z" fill="white"/>
<circle cx="104" cy="120" r="30" fill="#FE0000"/>
<path d="M119.066 114.566C117.914 114.086 116.693 113.812 115.405 113.812C112.694 113.812 110.321 114.977 108.558 116.759V106.685C108.558 106.274 108.287 106 107.88 106H104.694C104.287 106 104.016 106.274 104.016 106.685V127.723H102.05V111.071C102.05 110.66 101.779 110.386 101.372 110.386H98.1858C97.779 110.386 97.5079 110.66 97.5079 111.071V127.723H95.6775V115.731C95.6775 115.32 95.4063 115.046 94.9996 115.046H91.8134C91.4066 115.046 91.1354 115.32 91.1354 115.731V127.723H89.3051V119.98C89.3051 119.569 89.0339 119.294 88.6272 119.294H85.6439C85.2371 119.294 84.966 119.569 84.966 119.98V127.723H83.6779C83.2711 127.723 83 127.998 83 128.409C83 128.82 83.2712 129.094 83.6779 129.094C86.3219 129.094 105.101 129.094 107.813 129.094C109.507 131.424 112.287 133 115.405 133C116.693 133 117.914 132.726 119.066 132.246C122.524 130.807 124.897 127.381 124.897 123.406C124.897 119.432 122.524 116.005 119.066 114.566ZM88.1523 127.723H86.3219V120.665H88.1523V127.723ZM94.4572 127.723H92.6268V116.416H94.4572V127.723ZM100.762 127.723H98.9315V111.756H100.762V127.723ZM117.914 115.594L114.999 122.721H107.338C107.745 117.513 112.897 113.949 117.914 115.594ZM107.27 118.609C106.389 119.98 105.914 121.624 105.914 123.406C105.914 124.982 106.321 126.421 106.931 127.723H105.372V107.37H105.44H107.27V118.609H107.27ZM107.338 124.091H114.999L117.981 131.218C112.897 132.863 107.745 129.299 107.338 124.091ZM119.202 130.67L116.151 123.406L119.134 116.142C124.964 119.226 125.032 127.586 119.202 130.67Z" fill="white"/>
</svg>
